<?xml version="1.0" standalone="no"?>
<!DOCTYPE svg PUBLIC "-//W3C//DTD SVG 20010904//EN"
 "http://www.w3.org/TR/2001/REC-SVG-20010904/DTD/svg10.dtd">
<svg version="1.0" xmlns="http://www.w3.org/2000/svg"
 width="64.000000pt" height="64.000000pt" viewBox="0 0 64.000000 64.000000"
 preserveAspectRatio="xMidYMid meet">

<g transform="translate(0.000000,64.000000) scale(0.100000,-0.100000)"
fill="#ffff" stroke="none">
<path d="M190 522 l-125 -77 -3 -63 c-2 -37 1 -62 7 -62 6 0 62 32 126 70 64
39 120 70 125 70 5 0 61 -31 125 -70 64 -38 120 -70 126 -70 6 0 9 25 7 62
l-3 63 -125 77 c-69 42 -127 77 -130 77 -3 0 -61 -35 -130 -77z m252 -20 l113
-68 3 -42 c2 -23 1 -42 -2 -42 -3 0 -57 31 -121 70 l-115 69 -115 -69 c-64
-39 -118 -70 -121 -70 -3 0 -4 19 -2 42 3 42 3 42 113 109 61 37 115 68 122
68 7 1 63 -30 125 -67z"/>
<path d="M190 322 l-125 -77 -3 -63 c-2 -37 1 -62 7 -62 6 0 62 32 126 70 64
39 120 70 125 70 5 0 61 -31 125 -70 64 -39 120 -70 126 -70 6 0 9 25 7 62
l-3 63 -125 77 c-69 42 -127 77 -130 77 -3 0 -61 -35 -130 -77z m252 -20 l113
-68 3 -42 c2 -23 1 -42 -2 -42 -3 0 -57 31 -121 70 l-115 69 -115 -69 c-64
-39 -118 -70 -121 -70 -3 0 -4 19 -2 42 3 42 3 42 113 109 61 37 115 68 122
68 7 1 63 -30 125 -67z"/>
<path d="M310 196 c0 -8 5 -18 10 -21 6 -3 10 1 10 9 0 8 -4 18 -10 21 -5 3
-10 -1 -10 -9z"/>
<path d="M266 166 c3 -9 11 -16 16 -16 13 0 5 23 -10 28 -7 2 -10 -2 -6 -12z"/>
<path d="M370 162 c0 -11 41 -34 48 -27 4 4 -2 13 -12 21 -22 15 -36 18 -36 6z"/>
<path d="M224 144 c3 -9 6 -18 6 -20 0 -3 4 -3 10 1 11 7 2 35 -12 35 -6 0 -7
-7 -4 -16z"/>
<path d="M180 121 c0 -6 5 -13 10 -16 6 -3 10 1 10 9 0 9 -4 16 -10 16 -5 0
-10 -4 -10 -9z"/>
<path d="M446 122 c-3 -6 21 -26 54 -45 33 -20 62 -32 65 -27 3 4 -12 19 -32
31 -21 13 -48 29 -60 36 -12 8 -24 10 -27 5z"/>
<path d="M130 102 c0 -5 7 -16 16 -23 14 -12 16 -11 13 5 -4 20 -29 35 -29 18z"/>
<path d="M92 69 c2 -7 10 -15 17 -17 8 -3 12 1 9 9 -2 7 -10 15 -17 17 -8 3
-12 -1 -9 -9z"/>
</g>
</svg>
