<?xml version="1.0" standalone="no"?>
<!DOCTYPE svg PUBLIC "-//W3C//DTD SVG 20010904//EN"
 "http://www.w3.org/TR/2001/REC-SVG-20010904/DTD/svg10.dtd">
<svg version="1.0" xmlns="http://www.w3.org/2000/svg"
 width="512.000000pt" height="512.000000pt" viewBox="0 0 512.000000 512.000000"
 preserveAspectRatio="xMidYMid meet">

<g transform="translate(0.000000,512.000000) scale(0.100000,-0.100000)"
fill="#ffff" stroke="none">
<path d="M665 4625 c-138 -30 -288 -107 -397 -204 -98 -87 -194 -245 -240
-393 l-23 -73 -3 -1738 -2 -1737 2560 0 2560 0 0 1703 c0 1949 6 1800 -89
1992 -103 208 -264 348 -488 426 l-98 34 -1860 2 c-1507 1 -1871 -1 -1920 -12z
m3413 -301 c47 -19 88 -58 115 -109 21 -39 22 -52 25 -457 l3 -418 -1661 0
-1661 0 3 418 c3 405 4 418 25 457 11 22 34 52 50 67 64 61 -41 57 1581 58
1318 0 1487 -2 1520 -16z m-3456 -71 c-13 -40 -16 -119 -20 -480 l-3 -433
-150 0 -149 0 0 263 c0 296 8 346 66 458 41 78 143 180 214 216 25 13 48 23
52 23 3 0 -1 -21 -10 -47z m3953 2 c70 -45 147 -131 184 -203 54 -106 61 -158
61 -449 l0 -263 -149 0 -150 0 -3 433 c-4 363 -7 440 -20 480 -16 48 -16 48 5
41 12 -4 45 -21 72 -39z m-2767 -1362 l3 -143 -756 0 -755 0 0 145 0 145 753
-2 752 -3 3 -142z m1202 -111 c0 -281 -8 -337 -57 -422 -179 -305 -607 -305
-786 0 -49 85 -57 141 -57 422 l0 258 450 0 450 0 0 -258z m1810 113 l0 -145
-755 0 -755 0 0 138 c0 76 3 142 7 145 3 4 343 7 755 7 l748 0 0 -145z m-4230
-975 l0 -530 85 0 c99 0 139 -14 178 -59 25 -31 27 -39 27 -132 l0 -99 1680 0
1680 0 0 99 c0 93 2 101 27 132 39 45 79 59 178 59 l85 0 0 530 0 530 145 0
145 0 0 -835 0 -835 -2260 0 -2260 0 0 835 0 835 145 0 145 0 0 -530z m1244
468 c71 -257 280 -465 536 -535 89 -24 291 -24 380 0 256 70 467 280 535 532
l18 65 461 -2 461 -3 3 -391 2 -390 -52 -25 c-68 -31 -158 -120 -189 -186
l-24 -52 -1405 0 -1405 0 -24 52 c-31 66 -121 155 -189 186 l-52 24 0 387 c0
213 3 390 7 393 3 4 212 7 463 7 l457 0 17 -62z"/>
<path d="M2410 2630 l0 -150 150 0 150 0 0 150 0 150 -150 0 -150 0 0 -150z"/>
</g>
</svg>
