<?xml version="1.0" standalone="no"?>
<!DOCTYPE svg PUBLIC "-//W3C//DTD SVG 20010904//EN"
 "http://www.w3.org/TR/2001/REC-SVG-20010904/DTD/svg10.dtd">
<svg version="1.0" xmlns="http://www.w3.org/2000/svg"
 width="50.000000pt" height="50.000000pt" viewBox="0 0 50.000000 50.000000"
 preserveAspectRatio="xMidYMid meet">

<g transform="translate(0.000000,50.000000) scale(0.100000,-0.100000)"
fill="#ffff" stroke="none">
<path d="M240 482 c0 -13 -13 -21 -47 -30 -63 -17 -128 -82 -145 -145 -9 -34
-17 -47 -30 -47 -10 0 -18 -4 -18 -10 0 -5 8 -10 18 -10 13 0 21 -13 30 -47
17 -64 82 -128 145 -144 35 -8 47 -16 47 -30 0 -11 5 -19 10 -19 6 0 10 8 10
19 0 14 12 22 47 30 64 17 127 80 144 144 8 35 16 47 30 47 11 0 19 5 19 10 0
6 -8 10 -19 10 -14 0 -22 12 -30 47 -16 63 -80 128 -144 145 -34 9 -47 17 -47
30 0 10 -4 18 -10 18 -5 0 -10 -8 -10 -18z m0 -62 c0 -11 5 -20 10 -20 6 0 10
9 10 20 0 24 9 25 58 5 49 -21 81 -52 103 -100 24 -51 24 -65 -1 -65 -11 0
-20 -4 -20 -10 0 -5 9 -10 20 -10 25 0 25 -14 1 -65 -22 -48 -54 -79 -103
-100 -49 -20 -58 -19 -58 5 0 11 -4 20 -10 20 -5 0 -10 -9 -10 -20 0 -24 -9
-25 -58 -5 -49 21 -81 52 -103 100 -24 51 -24 65 1 65 11 0 20 5 20 10 0 6 -9
10 -20 10 -24 0 -25 9 -5 58 21 49 52 81 100 103 51 24 65 24 65 -1z"/>
<path d="M202 297 c-28 -30 -28 -68 1 -95 30 -28 68 -28 95 1 28 30 28 68 -1
95 -30 28 -68 28 -95 -1z m82 -13 c31 -30 9 -84 -34 -84 -24 0 -50 26 -50 50
0 10 7 26 16 34 8 9 24 16 34 16 10 0 26 -7 34 -16z"/>
</g>
</svg>
